<svg width="50" height="82" viewBox="0 0 50 82" fill="none" xmlns="http://www.w3.org/2000/svg">
<path d="M2.78474 79.8588L4.78795 78.999L7.23775 77.867C8.10517 77.424 9.07457 76.981 10.0526 76.4417C10.5736 76.1694 11.1064 75.8817 11.651 75.5785C11.6457 75.5218 11.6392 75.45 11.6317 75.3654C11.6188 75.2614 11.621 75.1346 11.6145 75.0019C11.5204 75.0015 11.4271 74.9884 11.3386 74.963C10.8479 74.8171 10.3918 74.6073 9.98922 74.3425C9.56062 74.0729 9.17876 73.7603 8.85342 73.4125C7.7509 72.3135 7.09927 70.6573 6.81371 68.6326C6.80297 68.5649 6.79224 68.4981 6.78365 68.4305C6.56036 66.4658 7.78096 64.5856 8.64193 63.2202C8.98224 62.7265 9.27639 62.2996 9.52974 61.9521C9.87005 61.4846 10.1341 61.1625 10.3349 61.0221C10.3876 60.9749 10.4606 60.9448 10.5399 60.9376C10.8416 60.9232 11.5126 61.318 12.1427 62.0113C12.3952 62.2926 12.6154 62.5911 12.8008 62.9032C13.5941 64.1358 14.0257 65.8621 14.2522 67.7136C14.2587 67.7838 14.2651 67.8531 14.2694 67.9233C14.3907 69.6986 13.68 71.3979 13.139 72.6745C12.9672 73.0439 12.8169 73.3779 12.6634 73.6695C12.3413 74.3002 12.0762 74.7365 11.8164 74.9157C11.8164 74.9402 11.825 74.9639 11.8282 74.9875C11.8518 75.1169 11.8668 75.2352 11.8947 75.3392C11.9022 75.3714 11.9087 75.4009 11.9151 75.4297C13.3708 74.6105 14.8942 73.6831 16.4551 72.6398C17.9269 71.6583 19.4256 70.5711 20.9103 69.3774C20.8981 69.3334 20.8841 69.2835 20.8684 69.2277C20.8373 69.1263 20.8158 69.0003 20.7857 68.8701C20.6929 68.8811 20.5983 68.8785 20.5066 68.8625C19.9941 68.7737 19.5042 68.6176 19.0573 68.4009C18.5862 68.1833 18.1531 67.9181 17.7691 67.6121C16.4809 66.6492 15.5319 65.0835 14.8781 63.112C14.8555 63.0469 14.833 62.981 14.8115 62.915C14.2318 60.9968 15.0971 58.9974 15.7015 57.5492C15.9484 57.0225 16.1609 56.566 16.3456 56.1965C16.5957 55.6952 16.7997 55.3511 16.9725 55.182C17.0168 55.1306 17.0838 55.0942 17.1604 55.0797C17.4567 55.0315 18.1921 55.346 18.9425 55.9615C19.2438 56.2102 19.5168 56.4792 19.7584 56.7655C20.7675 57.8958 21.5082 59.5553 22.0707 61.3628C22.0901 61.4313 22.1094 61.4998 22.1266 61.5674C22.5689 63.3098 22.177 65.0734 21.8732 66.3973C21.7659 66.7828 21.6768 67.1311 21.5844 67.4363C21.3848 68.0957 21.198 68.5582 20.9725 68.7653L20.9983 68.8355C21.0455 68.9597 21.082 69.0747 21.1282 69.1736C21.1282 69.1821 21.1346 69.1905 21.1389 69.199C21.841 68.6292 22.5381 68.0349 23.2302 67.416C25.2486 65.5982 27.0849 63.6598 28.7224 61.6182L28.6719 61.5192C28.6193 61.4229 28.5721 61.302 28.5152 61.1811C28.4257 61.2035 28.3319 61.2132 28.2382 61.2098C27.7105 61.1873 27.1915 61.0946 26.703 60.9359C26.1913 60.7826 25.7073 60.5771 25.2634 60.3247C23.7884 59.541 22.5291 58.119 21.4739 56.2582C21.4374 56.1974 21.4009 56.1356 21.3665 56.0731C20.4003 54.2546 20.8297 52.1723 21.1271 50.6624C21.2613 50.1112 21.3762 49.6344 21.4835 49.243C21.6263 48.7154 21.7551 48.3452 21.8915 48.1634C21.9242 48.1067 21.9829 48.0617 22.0557 48.0374C22.3381 47.9529 23.1292 48.1676 23.9967 48.6774C24.3464 48.8834 24.6719 49.1137 24.9693 49.3656C26.2006 50.3505 27.2763 51.8883 28.2071 53.6019C28.2403 53.6662 28.2736 53.7321 28.3047 53.7972C29.1045 55.4576 29.0841 57.2474 29.0616 58.5941C29.0401 58.9864 29.0208 59.3423 28.9929 59.656C28.9338 60.3323 28.8447 60.8125 28.6708 61.0458C28.6848 61.0678 28.6977 61.0898 28.7105 61.1109C28.776 61.2166 28.8308 61.3155 28.8898 61.4017C29.0788 61.1622 29.2663 60.9215 29.4524 60.6797C30.3874 59.4345 31.2613 58.1325 32.0718 56.7866C32.863 55.434 33.5865 54.0348 34.2188 52.5984C34.2392 52.5519 34.2586 52.5054 34.2779 52.4589L34.2124 52.3803C34.1362 52.2958 34.0578 52.1833 33.9698 52.07C33.8885 52.1069 33.7994 52.1318 33.7068 52.1436C33.1881 52.2061 32.6598 52.1998 32.1437 52.125C31.6027 52.057 31.0754 51.9333 30.5753 51.7572C28.9295 51.2263 27.3289 50.0368 25.8142 48.384C25.7626 48.3299 25.7068 48.2758 25.6617 48.22C24.2404 46.596 24.1298 44.4867 24.0278 42.9632C24.016 42.4019 24.0063 41.9166 24.0095 41.5167C24.0095 40.9765 24.0428 40.5944 24.1298 40.3932C24.1472 40.3328 24.1928 40.2797 24.2575 40.2444C24.512 40.1151 25.3418 40.1987 26.3241 40.5589C26.7196 40.7046 27.0979 40.8777 27.4545 41.0763C28.9145 41.8431 30.3659 43.1754 31.7207 44.704C31.7701 44.7623 31.8195 44.8206 31.8667 44.8798C33.0798 46.377 33.5221 48.133 33.8485 49.4552C33.929 49.8424 34.002 50.1941 34.0557 50.5052C34.1727 51.1764 34.2102 51.6617 34.0954 51.9187L34.1512 51.9762C34.236 52.0607 34.3112 52.1453 34.3852 52.2172C35.5728 49.4258 36.4 46.5472 36.8544 43.6252C36.9259 43.1405 36.9889 42.6552 37.0433 42.1694L36.7824 41.9581C36.6955 41.8904 36.5999 41.8 36.4958 41.7087C36.4297 41.7529 36.3541 41.7876 36.2725 41.811C35.8152 41.9369 35.3345 42.002 34.8501 42.0037C34.3443 42.0142 33.8391 41.9724 33.3471 41.8794C31.7368 41.6182 30.0278 40.7533 28.3015 39.4565C28.2425 39.415 28.1845 39.3719 28.1276 39.328C26.4873 38.0446 25.9301 36.145 25.5093 34.7763C25.3772 34.269 25.2624 33.8294 25.1808 33.4659C25.067 32.9755 25.0112 32.6247 25.0466 32.4302C25.0491 32.373 25.079 32.3186 25.1303 32.2781C25.3332 32.1267 26.104 32.0912 27.0734 32.2865C27.4619 32.366 27.8409 32.4721 28.206 32.6035C29.6971 33.104 31.302 34.1194 32.8619 35.3241C32.9188 35.3697 32.9757 35.4171 33.0315 35.4644C34.4561 36.6615 35.2376 38.1943 35.8227 39.3533C35.9805 39.6915 36.1211 40.0035 36.2382 40.2791C36.4894 40.8708 36.6278 41.3079 36.5785 41.5565L36.6418 41.6013C36.7556 41.6816 36.8565 41.7577 36.9542 41.8186L37.0787 41.9031C37.3296 39.4072 37.3429 36.9 37.1184 34.4026C37.0469 33.5572 36.9438 32.7185 36.8093 31.8866L36.5355 31.7581C36.4282 31.7125 36.3144 31.6474 36.1888 31.5831C36.1407 31.6375 36.0807 31.6848 36.0116 31.7226C35.627 31.9309 35.2006 32.0867 34.7502 32.1834C34.2829 32.2932 33.7992 32.3543 33.3117 32.3651C31.7304 32.4395 29.8624 31.9729 27.8367 31.1072C27.7691 31.0801 27.7014 31.0514 27.6338 31.0226C25.7014 30.1527 24.5732 28.4931 23.7444 27.3028C23.4599 26.8564 23.2141 26.4701 23.0208 26.148C22.7589 25.7143 22.5914 25.3981 22.5656 25.2104C22.5499 25.1566 22.5606 25.1001 22.5957 25.0523C22.7363 24.8705 23.4427 24.6854 24.4078 24.6761C24.7966 24.6727 25.185 24.6967 25.5683 24.748C27.1153 24.917 28.9328 25.5469 30.7696 26.3602C30.8383 26.3914 30.9059 26.4244 30.9735 26.4565C32.6805 27.2901 33.8968 28.5633 34.8071 29.5245C35.0626 29.812 35.2924 30.0715 35.4888 30.3049C35.9118 30.8079 36.1802 31.1858 36.2135 31.4267L36.2865 31.4563C36.4185 31.5087 36.5366 31.5595 36.6472 31.5967L36.7728 31.6423C36.4414 29.5963 35.9459 27.5689 35.2891 25.5722C34.9585 24.5696 34.5931 23.5886 34.1931 22.6293L34.0653 22.5829C33.958 22.5457 33.8324 22.4899 33.6982 22.4366C33.6577 22.4944 33.6042 22.546 33.5404 22.5888C33.1851 22.8274 32.7811 23.0169 32.3455 23.1493C31.895 23.2966 31.4218 23.3964 30.9381 23.446C29.3751 23.6481 27.4556 23.3344 25.3278 22.637C25.257 22.6158 25.1861 22.5922 25.1131 22.5685C23.0734 21.8592 21.7401 20.2994 20.76 19.1809C20.4186 18.7582 20.1234 18.3955 19.8893 18.0912C19.5726 17.6803 19.3687 17.3793 19.315 17.195C19.2923 17.1427 19.2957 17.0856 19.3246 17.0352C19.4406 16.8433 20.1191 16.6024 21.0777 16.5145C21.464 16.4799 21.8535 16.4726 22.2414 16.4925C23.8024 16.5373 25.6928 17.0158 27.6263 17.6761C27.6982 17.7014 27.7701 17.7285 27.841 17.7555C29.6477 18.4462 31.024 19.6154 32.0535 20.4972C32.3444 20.7627 32.6075 21.0045 32.834 21.2184C33.3192 21.685 33.6348 22.0384 33.7003 22.276L33.7776 22.2988C33.8925 22.3343 33.9923 22.3673 34.0997 22.3935C33.4195 20.7839 32.6348 19.2028 31.7486 17.6566C30.8576 16.0951 29.8968 14.625 28.9038 13.252L28.5957 13.203C28.4883 13.1895 28.3724 13.1616 28.2446 13.1379C28.2257 13.194 28.1941 13.247 28.1512 13.2943C27.909 13.5545 27.6133 13.7811 27.2763 13.9647C26.9306 14.1632 26.553 14.3247 26.1534 14.4449C24.8727 14.8676 23.1539 14.9124 21.1572 14.6605C21.0917 14.6537 21.0251 14.6461 20.9586 14.6368C19.0337 14.3604 17.49 13.2461 16.3628 12.4506C15.9623 12.1462 15.6113 11.8833 15.3365 11.6601C14.9586 11.3617 14.7063 11.1385 14.6129 10.9897C14.5798 10.9485 14.5675 10.899 14.5786 10.851C14.6279 10.6693 15.1454 10.3539 15.9398 10.1248C16.26 10.0323 16.5902 9.96297 16.9264 9.9177C18.2694 9.70381 20.0063 9.80611 21.8281 10.058L22.0321 10.091C23.7498 10.3886 25.2312 11.1638 26.3391 11.7506C26.6612 11.9289 26.9435 12.0887 27.1926 12.2392C27.7293 12.5588 28.09 12.8099 28.2071 13.0001L28.279 13.0077C28.4078 13.0212 28.5237 13.0364 28.629 13.0415L28.7589 13.0508C28.2511 12.3559 27.7358 11.6829 27.2173 11.0396C26.235 9.82217 25.2441 8.70284 24.2715 7.67736C24.0364 7.7619 23.5028 7.69257 22.7685 7.50827C22.473 7.43557 22.1473 7.34567 21.7916 7.23859C20.585 6.85308 19.081 6.26213 17.9666 5.24003C17.9237 5.1986 17.8797 5.15549 17.8367 5.11744C16.7235 4.0015 15.7552 2.89908 15.2109 1.95982C15.07 1.73054 14.9505 1.49348 14.8534 1.25052C14.6161 0.658728 14.6065 0.201359 14.7664 0.0728558C14.8117 0.0384869 14.8711 0.0180823 14.9339 0.0153677C15.1486 -0.0150672 15.5501 0.000995621 16.0912 0.0584838C16.4937 0.0982182 16.9725 0.16247 17.5125 0.246166C18.9682 0.511626 20.8748 0.948705 22.06 2.12468C22.1008 2.16526 22.1405 2.20922 22.1792 2.24726C23.3751 3.48579 24.1813 4.65415 24.4561 5.68049C24.5522 5.99094 24.5994 6.30951 24.5968 6.62904C24.6053 6.92847 24.5464 7.22671 24.4229 7.50996C24.4103 7.53496 24.3956 7.55925 24.3788 7.58267C25.374 8.60647 26.3896 9.72664 27.3965 10.9457C27.9591 11.6263 28.5184 12.339 29.0691 13.0779C29.0691 13.0669 29.0766 13.0559 29.082 13.0432C29.1131 12.9646 29.1378 12.8741 29.1689 12.7744C29.1689 12.7566 29.1797 12.738 29.185 12.7194C29.0015 12.5638 28.8351 12.2079 28.6483 11.6981C28.5624 11.4623 28.4754 11.1909 28.3788 10.895C28.0868 9.86867 27.7068 8.50248 27.9795 7.13206C27.9902 7.07796 28.0009 7.02385 28.0138 6.96974C28.3767 5.54184 28.8855 4.22976 29.6241 3.32178C29.8002 3.09184 30.0021 2.87482 30.2274 2.67335C30.7868 2.17286 31.3482 1.91248 31.5812 1.93784C31.6413 1.94748 31.6949 1.97427 31.7315 2.01308C31.8732 2.13651 32.0471 2.40197 32.2682 2.78748C32.4303 3.07323 32.6161 3.42408 32.8297 3.82819C33.3665 4.94329 34.1179 6.48109 33.7486 7.99354C33.7357 8.04511 33.7218 8.09668 33.7057 8.14825C33.2763 9.7055 32.6053 10.9508 31.637 11.7362C31.3495 11.9858 31.0214 12.2044 30.6611 12.3863C30.3215 12.5668 29.946 12.7014 29.55 12.7845C29.4799 12.7985 29.4072 12.8025 29.3353 12.7963C29.3182 12.8986 29.3053 12.9984 29.286 13.0779C29.2645 13.1742 29.2473 13.2512 29.2366 13.2977C30.2135 14.625 31.1614 16.0427 32.046 17.5476C32.9948 19.1618 33.8337 20.8147 34.5591 22.4992C34.5621 22.4948 34.5646 22.4903 34.5667 22.4856C34.615 22.4011 34.6568 22.2988 34.7084 22.1897C34.717 22.1694 34.7266 22.15 34.7363 22.1297C34.5516 21.9353 34.4217 21.5151 34.2961 20.9191C34.2371 20.6426 34.1813 20.3273 34.119 19.9815C33.9526 18.7903 33.7411 17.206 34.2693 15.6792C34.2897 15.62 34.3122 15.5592 34.3348 15.5C34.9789 13.919 35.7615 12.4827 36.7459 11.5265C36.982 11.283 37.2453 11.0566 37.5328 10.8502C38.2478 10.3429 38.9284 10.0961 39.1839 10.1536C39.2515 10.1695 39.3087 10.2052 39.3439 10.2533C39.4845 10.4055 39.638 10.7251 39.8216 11.1833C39.959 11.5215 40.1136 11.9374 40.2918 12.4167C40.7212 13.7339 41.3288 15.5515 40.6654 17.2272C40.6418 17.2846 40.6171 17.3421 40.5913 17.3962C39.8581 19.1167 38.8941 20.4609 37.6724 21.2547C37.3065 21.5114 36.899 21.7286 36.4604 21.9006C36.0471 22.0709 35.6003 22.1853 35.1389 22.2388C35.056 22.2482 34.9716 22.2459 34.8898 22.232C34.8522 22.347 34.8232 22.4577 34.7878 22.5465C34.7416 22.6699 34.7062 22.7646 34.689 22.812C35.0551 23.6802 35.3986 24.5653 35.71 25.4699C36.4075 27.4983 36.9396 29.5597 37.3031 31.6415C37.3621 31.5831 37.4212 31.5197 37.4877 31.4512L37.5371 31.3997C37.4298 31.1714 37.4641 30.7394 37.564 30.1417C37.6112 29.8636 37.6713 29.5499 37.7432 29.205C38.0267 28.0324 38.411 26.4658 39.4781 25.1301C39.5199 25.0768 39.564 25.0244 39.6069 24.9728C40.8103 23.6075 42.0943 22.4155 43.3911 21.7315C43.7073 21.5536 44.0428 21.398 44.3938 21.2665C45.2666 20.9427 46.0041 20.865 46.2317 20.9799C46.2901 21.0094 46.3319 21.0554 46.3487 21.1084C46.4281 21.2877 46.456 21.6275 46.4625 22.1077C46.4678 22.4636 46.4625 22.8965 46.4539 23.3961C46.3712 24.753 46.2843 26.6324 45.0272 28.0831C44.9831 28.1322 44.9381 28.1812 44.8919 28.2294C43.5532 29.7063 42.134 30.7707 40.6708 31.2483C40.2264 31.4077 39.7571 31.5197 39.2752 31.5814C38.8148 31.6499 38.3431 31.6573 37.8796 31.6034C37.7969 31.593 37.7172 31.571 37.6445 31.5383C37.5661 31.6389 37.4974 31.7387 37.4298 31.8148C37.3986 31.8511 37.3718 31.8841 37.3471 31.9145C37.4824 32.7227 37.5929 33.538 37.6788 34.3603C37.9388 36.8443 37.966 39.3399 37.7604 41.827L37.8785 41.7425L37.9418 41.6977C37.8925 41.4491 38.032 41.0137 38.2832 40.4202C38.3992 40.1446 38.5409 39.8361 38.6976 39.4945C39.2795 38.338 40.061 36.8053 41.4888 35.6056C41.5446 35.5591 41.5961 35.5126 41.6584 35.467C43.2193 34.2614 44.8243 33.2461 46.3143 32.7456C46.6808 32.6135 47.0612 32.5069 47.4512 32.4269C48.4174 32.2316 49.1914 32.2671 49.3943 32.4184C49.446 32.4588 49.4763 32.5132 49.4791 32.5706C49.5134 32.765 49.4587 33.1159 49.3449 33.6062C49.2558 33.9714 49.1399 34.4127 49.01 34.92C48.5881 36.2887 48.0309 38.1884 46.3916 39.4717C46.3336 39.5148 46.2757 39.5562 46.2177 39.6002C44.4861 40.8971 42.776 41.7619 41.1721 42.0231C40.6801 42.116 40.1749 42.1578 39.6692 42.1474C39.1849 42.146 38.7045 42.0806 38.2478 41.9538C38.166 41.9308 38.09 41.8964 38.0234 41.8524C37.9161 41.942 37.827 42.0316 37.74 42.0984C37.6914 42.6293 37.6316 43.1597 37.5607 43.6895C37.1481 46.6255 36.3648 49.5218 35.2226 52.3355L35.302 52.2975C35.316 52.0252 35.5801 51.5865 36.0052 50.9972C36.2027 50.7233 36.4346 50.419 36.6944 50.0825C37.6209 48.9505 38.8608 47.4507 40.6933 46.4151C40.7652 46.3745 40.8382 46.3305 40.908 46.295C42.8876 45.2738 44.864 44.4605 46.5806 44.1764C47.0035 44.0966 47.4346 44.0463 47.8688 44.0259C48.9509 43.9794 49.7614 44.1451 49.9364 44.3396C49.9836 44.3887 50.0058 44.4499 49.9987 44.5112C49.9847 44.7226 49.8312 45.0861 49.58 45.5883C49.3943 45.9602 49.1506 46.4083 48.8801 46.9266C48.0663 48.3105 46.967 50.2363 44.8812 51.3278C44.8092 51.365 44.7362 51.4005 44.6665 51.436C42.4797 52.5266 40.4314 53.1623 38.6547 53.1725C38.1076 53.1901 37.56 53.1506 37.0261 53.055C36.5118 52.9728 36.0185 52.824 35.5661 52.6145C35.486 52.5761 35.4152 52.5269 35.3568 52.4691C35.272 52.5181 35.1925 52.568 35.1174 52.612C35.0895 52.6787 35.0626 52.7464 35.0347 52.8132C34.4099 54.2766 33.6971 55.7036 32.9134 57.0867C32.1115 58.4631 31.2419 59.7921 30.309 61.0712C30.1244 61.3203 29.9376 61.5669 29.7486 61.8109L29.8195 61.7915L29.9054 61.7661C29.987 61.5015 30.3541 61.1109 30.9167 60.5986C31.1775 60.3602 31.4813 60.0964 31.8173 59.8064C33.0057 58.8376 34.5924 57.5559 36.6482 56.8204C36.7288 56.7908 36.8103 56.7629 36.8919 56.7359C39.0852 56.0359 41.2247 55.5405 42.9789 55.5244C43.415 55.5103 43.852 55.5273 44.2843 55.5751C45.3578 55.6943 46.1093 55.9801 46.2349 56.1974C46.2639 56.2552 46.2639 56.3196 46.2349 56.3774C46.1683 56.5829 45.9289 56.9168 45.5586 57.3699C45.2848 57.7081 44.9402 58.1105 44.5419 58.5755C43.4029 59.8098 41.8506 61.5345 39.535 62.2826C39.4545 62.308 39.3739 62.3317 39.2934 62.3554C36.8801 63.0909 34.7148 63.402 32.9671 63.1399C32.4261 63.073 31.8984 62.9508 31.3976 62.7764C30.9137 62.6167 30.4668 62.395 30.075 62.1203C30.0051 62.0706 29.9473 62.0113 29.9043 61.9453C29.7723 61.9944 29.6488 62.0459 29.5372 62.084C27.9133 64.1588 26.0882 66.1317 24.0783 67.985C23.3139 68.6861 22.5413 69.3571 21.7605 69.9979L21.9892 69.9801L22.0815 69.9725C22.2425 69.7316 22.7192 69.423 23.4234 69.0341C23.7455 68.8532 24.1255 68.6562 24.5409 68.4423C25.9806 67.7305 27.9161 66.7921 30.1383 66.4708L30.4014 66.4353C32.7449 66.1817 34.9725 66.1073 36.6804 66.4277C37.1077 66.4984 37.5262 66.5985 37.9311 66.727C38.9295 67.0457 39.5725 67.4684 39.6262 67.7051C39.6376 67.7666 39.6188 67.8292 39.5736 67.8801C39.4459 68.067 39.1098 68.3443 38.6074 68.7129C38.2371 68.9876 37.7787 69.3123 37.2483 69.6876C35.7615 70.6658 33.7239 72.0379 31.2462 72.3236C31.1603 72.3329 31.0755 72.3397 30.9897 72.3465C28.4218 72.6001 26.2253 72.4843 24.6107 71.8959C24.1065 71.7277 23.6325 71.508 23.2012 71.2424C22.7809 70.9946 22.4156 70.6938 22.1201 70.3521C22.0692 70.2904 22.0328 70.222 22.0128 70.1501C21.8475 70.1763 21.6907 70.2067 21.5597 70.2211L21.4674 70.2329C20.0622 71.3751 18.6473 72.4217 17.2549 73.3728C15.6242 74.4854 14.0354 75.4736 12.5217 76.3453L12.5592 76.3503C12.6924 76.3689 12.8427 76.3791 13.0069 76.3943L13.0992 76.4028C13.3215 76.1939 13.869 75.9716 14.6623 75.7087C15.0294 75.5861 15.4503 75.4551 15.9151 75.3122C17.5254 74.8582 19.6725 74.2622 21.9269 74.3188C22.016 74.3188 22.1051 74.3239 22.1931 74.329C24.5549 74.4659 26.7503 74.7686 28.3327 75.3654C28.7309 75.506 29.1127 75.6738 29.4738 75.8668C30.3692 76.3478 30.8844 76.8677 30.8694 77.1053C30.8633 77.1673 30.8286 77.2253 30.7717 77.2685C30.5967 77.4299 30.1942 77.6447 29.6069 77.922C29.1775 78.1291 28.6408 78.37 28.017 78.649C26.2994 79.3575 23.9376 80.3593 21.4427 80.2249C21.3568 80.2198 21.271 80.213 21.1862 80.2063C18.6097 80.0237 16.4916 79.546 15.067 78.7023C14.6194 78.4536 14.2151 78.1597 13.8647 77.8281C13.5201 77.5166 13.244 77.162 13.0477 76.779C13.0136 76.7102 12.9954 76.6372 12.994 76.5634C12.8255 76.5634 12.6634 76.5634 12.5313 76.5575L12.1739 76.5439C11.7069 76.8086 11.2452 77.063 10.7944 77.3048C9.80671 77.8636 8.8298 78.3193 7.9538 78.7809L5.47931 79.956L3.43959 80.8556C2.84593 81.1168 2.33708 81.3112 1.92699 81.4837L0.665588 82.0002L0 80.9773L1.26891 80.47C1.68008 80.3027 2.20181 80.1082 2.78474 79.8588Z" fill="white" fill-opacity="0.15"/>
<path d="M2.78474 79.8588L4.78795 78.999L7.23775 77.867C8.10517 77.424 9.07457 76.981 10.0526 76.4417C10.5736 76.1694 11.1064 75.8817 11.651 75.5785C11.6457 75.5218 11.6392 75.45 11.6317 75.3654C11.6188 75.2614 11.621 75.1346 11.6145 75.0019C11.5204 75.0015 11.4271 74.9884 11.3386 74.963C10.8479 74.8171 10.3918 74.6073 9.98922 74.3425C9.56062 74.0729 9.17876 73.7603 8.85342 73.4125C7.7509 72.3135 7.09927 70.6573 6.81371 68.6326C6.80297 68.5649 6.79224 68.4981 6.78365 68.4305C6.56036 66.4658 7.78096 64.5856 8.64193 63.2202C8.98224 62.7265 9.27639 62.2996 9.52974 61.9521C9.87005 61.4846 10.1341 61.1625 10.3349 61.0221C10.3876 60.9749 10.4606 60.9448 10.5399 60.9376C10.8416 60.9232 11.5126 61.318 12.1427 62.0113C12.3952 62.2926 12.6154 62.5911 12.8008 62.9032C13.5941 64.1358 14.0257 65.8621 14.2522 67.7136C14.2587 67.7838 14.2651 67.8531 14.2694 67.9233C14.3907 69.6986 13.68 71.3979 13.139 72.6745C12.9672 73.0439 12.8169 73.3779 12.6634 73.6695C12.3413 74.3002 12.0762 74.7365 11.8164 74.9157C11.8164 74.9402 11.825 74.9639 11.8282 74.9875C11.8518 75.1169 11.8668 75.2352 11.8947 75.3392C11.9022 75.3714 11.9087 75.4009 11.9151 75.4297C13.3708 74.6105 14.8942 73.6831 16.4551 72.6398C17.9269 71.6583 19.4256 70.5711 20.9103 69.3774C20.8981 69.3334 20.8841 69.2835 20.8684 69.2277C20.8373 69.1263 20.8158 69.0003 20.7857 68.8701C20.6929 68.8811 20.5983 68.8785 20.5066 68.8625C19.9941 68.7737 19.5042 68.6176 19.0573 68.4009C18.5862 68.1833 18.1531 67.9181 17.7691 67.6121C16.4809 66.6492 15.5319 65.0835 14.8781 63.112C14.8555 63.0469 14.833 62.981 14.8115 62.915C14.2318 60.9968 15.0971 58.9974 15.7015 57.5492C15.9484 57.0225 16.1609 56.566 16.3456 56.1965C16.5957 55.6952 16.7997 55.3511 16.9725 55.182C17.0168 55.1306 17.0838 55.0942 17.1604 55.0797C17.4567 55.0315 18.1921 55.346 18.9425 55.9615C19.2438 56.2102 19.5168 56.4792 19.7584 56.7655C20.7675 57.8958 21.5082 59.5553 22.0707 61.3628C22.0901 61.4313 22.1094 61.4998 22.1266 61.5674C22.5689 63.3098 22.177 65.0734 21.8732 66.3973C21.7659 66.7828 21.6768 67.1311 21.5844 67.4363C21.3848 68.0957 21.198 68.5582 20.9725 68.7653L20.9983 68.8355C21.0455 68.9597 21.082 69.0747 21.1282 69.1736C21.1282 69.1821 21.1346 69.1905 21.1389 69.199C21.841 68.6292 22.5381 68.0349 23.2302 67.416C25.2486 65.5982 27.0849 63.6598 28.7224 61.6182L28.6719 61.5192C28.6193 61.4229 28.5721 61.302 28.5152 61.1811C28.4257 61.2035 28.3319 61.2132 28.2382 61.2098C27.7105 61.1873 27.1915 61.0946 26.703 60.9359C26.1913 60.7826 25.7073 60.5771 25.2634 60.3247C23.7884 59.541 22.5291 58.119 21.4739 56.2582C21.4374 56.1974 21.4009 56.1356 21.3665 56.0731C20.4003 54.2546 20.8297 52.1723 21.1271 50.6624C21.2613 50.1112 21.3762 49.6344 21.4835 49.243C21.6263 48.7154 21.7551 48.3452 21.8915 48.1634C21.9242 48.1067 21.9829 48.0617 22.0557 48.0374C22.3381 47.9529 23.1292 48.1676 23.9967 48.6774C24.3464 48.8834 24.6719 49.1137 24.9693 49.3656C26.2006 50.3505 27.2763 51.8883 28.2071 53.6019C28.2403 53.6662 28.2736 53.7321 28.3047 53.7972C29.1045 55.4576 29.0841 57.2474 29.0616 58.5941C29.0401 58.9864 29.0208 59.3423 28.9929 59.656C28.9338 60.3323 28.8447 60.8125 28.6708 61.0458C28.6848 61.0678 28.6977 61.0898 28.7105 61.1109C28.776 61.2166 28.8308 61.3155 28.8898 61.4017C29.0788 61.1622 29.2663 60.9215 29.4524 60.6797C30.3874 59.4345 31.2613 58.1325 32.0718 56.7866C32.863 55.434 33.5865 54.0348 34.2188 52.5984C34.2392 52.5519 34.2586 52.5054 34.2779 52.4589L34.2124 52.3803C34.1362 52.2958 34.0578 52.1833 33.9698 52.07C33.8885 52.1069 33.7994 52.1318 33.7068 52.1436C33.1881 52.2061 32.6598 52.1998 32.1437 52.125C31.6027 52.057 31.0754 51.9333 30.5753 51.7572C28.9295 51.2263 27.3289 50.0368 25.8142 48.384C25.7626 48.3299 25.7068 48.2758 25.6617 48.22C24.2404 46.596 24.1298 44.4867 24.0278 42.9632C24.016 42.4019 24.0063 41.9166 24.0095 41.5167C24.0095 40.9765 24.0428 40.5944 24.1298 40.3932C24.1472 40.3328 24.1928 40.2797 24.2575 40.2444C24.512 40.1151 25.3418 40.1987 26.3241 40.5589C26.7196 40.7046 27.0979 40.8777 27.4545 41.0763C28.9145 41.8431 30.3659 43.1754 31.7207 44.704C31.7701 44.7623 31.8195 44.8206 31.8667 44.8798C33.0798 46.377 33.5221 48.133 33.8485 49.4552C33.929 49.8424 34.002 50.1941 34.0557 50.5052C34.1727 51.1764 34.2102 51.6617 34.0954 51.9187L34.1512 51.9762C34.236 52.0607 34.3112 52.1453 34.3852 52.2172C35.5728 49.4258 36.4 46.5472 36.8544 43.6252C36.9259 43.1405 36.9889 42.6552 37.0433 42.1694L36.7824 41.9581C36.6955 41.8904 36.5999 41.8 36.4958 41.7087C36.4297 41.7529 36.3541 41.7876 36.2725 41.811C35.8152 41.9369 35.3345 42.002 34.8501 42.0037C34.3443 42.0142 33.8391 41.9724 33.3471 41.8794C31.7368 41.6182 30.0278 40.7533 28.3015 39.4565C28.2425 39.415 28.1845 39.3719 28.1276 39.328C26.4873 38.0446 25.9301 36.145 25.5093 34.7763C25.3772 34.269 25.2624 33.8294 25.1808 33.4659C25.067 32.9755 25.0112 32.6247 25.0466 32.4302C25.0491 32.373 25.079 32.3186 25.1303 32.2781C25.3332 32.1267 26.104 32.0912 27.0734 32.2865C27.4619 32.366 27.8409 32.4721 28.206 32.6035C29.6971 33.104 31.302 34.1194 32.8619 35.3241C32.9188 35.3697 32.9757 35.4171 33.0315 35.4644C34.4561 36.6615 35.2376 38.1943 35.8227 39.3533C35.9805 39.6915 36.1211 40.0035 36.2382 40.2791C36.4894 40.8708 36.6278 41.3079 36.5785 41.5565L36.6418 41.6013C36.7556 41.6816 36.8565 41.7577 36.9542 41.8186L37.0787 41.9031C37.3296 39.4072 37.3429 36.9 37.1184 34.4026C37.0469 33.5572 36.9438 32.7185 36.8093 31.8866L36.5355 31.7581C36.4282 31.7125 36.3144 31.6474 36.1888 31.5831C36.1407 31.6375 36.0807 31.6848 36.0116 31.7226C35.627 31.9309 35.2006 32.0867 34.7502 32.1834C34.2829 32.2932 33.7992 32.3543 33.3117 32.3651C31.7304 32.4395 29.8624 31.9729 27.8367 31.1072C27.7691 31.0801 27.7014 31.0514 27.6338 31.0226C25.7014 30.1527 24.5732 28.4931 23.7444 27.3028C23.4599 26.8564 23.2141 26.4701 23.0208 26.148C22.7589 25.7143 22.5914 25.3981 22.5656 25.2104C22.5499 25.1566 22.5606 25.1001 22.5957 25.0523C22.7363 24.8705 23.4427 24.6854 24.4078 24.6761C24.7966 24.6727 25.185 24.6967 25.5683 24.748C27.1153 24.917 28.9328 25.5469 30.7696 26.3602C30.8383 26.3914 30.9059 26.4244 30.9735 26.4565C32.6805 27.2901 33.8968 28.5633 34.8071 29.5245C35.0626 29.812 35.2924 30.0715 35.4888 30.3049C35.9118 30.8079 36.1802 31.1858 36.2135 31.4267L36.2865 31.4563C36.4185 31.5087 36.5366 31.5595 36.6472 31.5967L36.7728 31.6423C36.4414 29.5963 35.9459 27.5689 35.2891 25.5722C34.9585 24.5696 34.5931 23.5886 34.1931 22.6293L34.0653 22.5829C33.958 22.5457 33.8324 22.4899 33.6982 22.4366C33.6577 22.4944 33.6042 22.546 33.5404 22.5888C33.1851 22.8274 32.7811 23.0169 32.3455 23.1493C31.895 23.2966 31.4218 23.3964 30.9381 23.446C29.3751 23.6481 27.4556 23.3344 25.3278 22.637C25.257 22.6158 25.1861 22.5922 25.1131 22.5685C23.0734 21.8592 21.7401 20.2994 20.76 19.1809C20.4186 18.7582 20.1234 18.3955 19.8893 18.0912C19.5726 17.6803 19.3687 17.3793 19.315 17.195C19.2923 17.1427 19.2957 17.0856 19.3246 17.0352C19.4406 16.8433 20.1191 16.6024 21.0777 16.5145C21.464 16.4799 21.8535 16.4726 22.2414 16.4925C23.8024 16.5373 25.6928 17.0158 27.6263 17.6761C27.6982 17.7014 27.7701 17.7285 27.841 17.7555C29.6477 18.4462 31.024 19.6154 32.0535 20.4972C32.3444 20.7627 32.6075 21.0045 32.834 21.2184C33.3192 21.685 33.6348 22.0384 33.7003 22.276L33.7776 22.2988C33.8925 22.3343 33.9923 22.3673 34.0997 22.3935C33.4195 20.7839 32.6348 19.2028 31.7486 17.6566C30.8576 16.0951 29.8968 14.625 28.9038 13.252L28.5957 13.203C28.4883 13.1895 28.3724 13.1616 28.2446 13.1379C28.2257 13.194 28.1941 13.247 28.1512 13.2943C27.909 13.5545 27.6133 13.7811 27.2763 13.9647C26.9306 14.1632 26.553 14.3247 26.1534 14.4449C24.8727 14.8676 23.1539 14.9124 21.1572 14.6605C21.0917 14.6537 21.0251 14.6461 20.9586 14.6368C19.0337 14.3604 17.49 13.2461 16.3628 12.4506C15.9623 12.1462 15.6113 11.8833 15.3365 11.6601C14.9586 11.3617 14.7063 11.1385 14.6129 10.9897C14.5798 10.9485 14.5675 10.899 14.5786 10.851C14.6279 10.6693 15.1454 10.3539 15.9398 10.1248C16.26 10.0323 16.5902 9.96297 16.9264 9.9177C18.2694 9.70381 20.0063 9.80611 21.8281 10.058L22.0321 10.091C23.7498 10.3886 25.2312 11.1638 26.3391 11.7506C26.6612 11.9289 26.9435 12.0887 27.1926 12.2392C27.7293 12.5588 28.09 12.8099 28.2071 13.0001L28.279 13.0077C28.4078 13.0212 28.5237 13.0364 28.629 13.0415L28.7589 13.0508C28.2511 12.3559 27.7358 11.6829 27.2173 11.0396C26.235 9.82217 25.2441 8.70284 24.2715 7.67736C24.0364 7.7619 23.5028 7.69257 22.7685 7.50827C22.473 7.43557 22.1473 7.34567 21.7916 7.23859C20.585 6.85308 19.081 6.26213 17.9666 5.24003C17.9237 5.1986 17.8797 5.15549 17.8367 5.11744C16.7235 4.0015 15.7552 2.89908 15.2109 1.95982C15.07 1.73054 14.9505 1.49348 14.8534 1.25052C14.6161 0.658728 14.6065 0.201359 14.7664 0.0728558C14.8117 0.0384869 14.8711 0.0180823 14.9339 0.0153677C15.1486 -0.0150672 15.5501 0.000995621 16.0912 0.0584838C16.4937 0.0982182 16.9725 0.16247 17.5125 0.246166C18.9682 0.511626 20.8748 0.948705 22.06 2.12468C22.1008 2.16526 22.1405 2.20922 22.1792 2.24726C23.3751 3.48579 24.1813 4.65415 24.4561 5.68049C24.5522 5.99094 24.5994 6.30951 24.5968 6.62904C24.6053 6.92847 24.5464 7.22671 24.4229 7.50996C24.4103 7.53496 24.3956 7.55925 24.3788 7.58267C25.374 8.60647 26.3896 9.72664 27.3965 10.9457C27.9591 11.6263 28.5184 12.339 29.0691 13.0779C29.0691 13.0669 29.0766 13.0559 29.082 13.0432C29.1131 12.9646 29.1378 12.8741 29.1689 12.7744C29.1689 12.7566 29.1797 12.738 29.185 12.7194C29.0015 12.5638 28.8351 12.2079 28.6483 11.6981C28.5624 11.4623 28.4754 11.1909 28.3788 10.895C28.0868 9.86867 27.7068 8.50248 27.9795 7.13206C27.9902 7.07796 28.0009 7.02385 28.0138 6.96974C28.3767 5.54184 28.8855 4.22976 29.6241 3.32178C29.8002 3.09184 30.0021 2.87482 30.2274 2.67335C30.7868 2.17286 31.3482 1.91248 31.5812 1.93784C31.6413 1.94748 31.6949 1.97427 31.7315 2.01308C31.8732 2.13651 32.0471 2.40197 32.2682 2.78748C32.4303 3.07323 32.6161 3.42408 32.8297 3.82819C33.3665 4.94329 34.1179 6.48109 33.7486 7.99354C33.7357 8.04511 33.7218 8.09668 33.7057 8.14825C33.2763 9.7055 32.6053 10.9508 31.637 11.7362C31.3495 11.9858 31.0214 12.2044 30.6611 12.3863C30.3215 12.5668 29.946 12.7014 29.55 12.7845C29.4799 12.7985 29.4072 12.8025 29.3353 12.7963C29.3182 12.8986 29.3053 12.9984 29.286 13.0779C29.2645 13.1742 29.2473 13.2512 29.2366 13.2977C30.2135 14.625 31.1614 16.0427 32.046 17.5476C32.9948 19.1618 33.8337 20.8147 34.5591 22.4992C34.5621 22.4948 34.5646 22.4903 34.5667 22.4856C34.615 22.4011 34.6568 22.2988 34.7084 22.1897C34.717 22.1694 34.7266 22.15 34.7363 22.1297C34.5516 21.9353 34.4217 21.5151 34.2961 20.9191C34.2371 20.6426 34.1813 20.3273 34.119 19.9815C33.9526 18.7903 33.7411 17.206 34.2693 15.6792C34.2897 15.62 34.3122 15.5592 34.3348 15.5C34.9789 13.919 35.7615 12.4827 36.7459 11.5265C36.982 11.283 37.2453 11.0566 37.5328 10.8502C38.2478 10.3429 38.9284 10.0961 39.1839 10.1536C39.2515 10.1695 39.3087 10.2052 39.3439 10.2533C39.4845 10.4055 39.638 10.7251 39.8216 11.1833C39.959 11.5215 40.1136 11.9374 40.2918 12.4167C40.7212 13.7339 41.3288 15.5515 40.6654 17.2272C40.6418 17.2846 40.6171 17.3421 40.5913 17.3962C39.8581 19.1167 38.8941 20.4609 37.6724 21.2547C37.3065 21.5114 36.899 21.7286 36.4604 21.9006C36.0471 22.0709 35.6003 22.1853 35.1389 22.2388C35.056 22.2482 34.9716 22.2459 34.8898 22.232C34.8522 22.347 34.8232 22.4577 34.7878 22.5465C34.7416 22.6699 34.7062 22.7646 34.689 22.812C35.0551 23.6802 35.3986 24.5653 35.71 25.4699C36.4075 27.4983 36.9396 29.5597 37.3031 31.6415C37.3621 31.5831 37.4212 31.5197 37.4877 31.4512L37.5371 31.3997C37.4298 31.1714 37.4641 30.7394 37.564 30.1417C37.6112 29.8636 37.6713 29.5499 37.7432 29.205C38.0267 28.0324 38.411 26.4658 39.4781 25.1301C39.5199 25.0768 39.564 25.0244 39.6069 24.9728C40.8103 23.6075 42.0943 22.4155 43.3911 21.7315C43.7073 21.5536 44.0428 21.398 44.3938 21.2665C45.2666 20.9427 46.0041 20.865 46.2317 20.9799C46.2901 21.0094 46.3319 21.0554 46.3487 21.1084C46.4281 21.2877 46.456 21.6275 46.4625 22.1077C46.4678 22.4636 46.4625 22.8965 46.4539 23.3961C46.3712 24.753 46.2843 26.6324 45.0272 28.0831C44.9831 28.1322 44.9381 28.1812 44.8919 28.2294C43.5532 29.7063 42.134 30.7707 40.6708 31.2483C40.2264 31.4077 39.7571 31.5197 39.2752 31.5814C38.8148 31.6499 38.3431 31.6573 37.8796 31.6034C37.7969 31.593 37.7172 31.571 37.6445 31.5383C37.5661 31.6389 37.4974 31.7387 37.4298 31.8148C37.3986 31.8511 37.3718 31.8841 37.3471 31.9145C37.4824 32.7227 37.5929 33.538 37.6788 34.3603C37.9388 36.8443 37.966 39.3399 37.7604 41.827L37.8785 41.7425L37.9418 41.6977C37.8925 41.4491 38.032 41.0137 38.2832 40.4202C38.3992 40.1446 38.5409 39.8361 38.6976 39.4945C39.2795 38.338 40.061 36.8053 41.4888 35.6056C41.5446 35.5591 41.5961 35.5126 41.6584 35.467C43.2193 34.2614 44.8243 33.2461 46.3143 32.7456C46.6808 32.6135 47.0612 32.5069 47.4512 32.4269C48.4174 32.2316 49.1914 32.2671 49.3943 32.4184C49.446 32.4588 49.4763 32.5132 49.4791 32.5706C49.5134 32.765 49.4587 33.1159 49.3449 33.6062C49.2558 33.9714 49.1399 34.4127 49.01 34.92C48.5881 36.2887 48.0309 38.1884 46.3916 39.4717C46.3336 39.5148 46.2757 39.5562 46.2177 39.6002C44.4861 40.8971 42.776 41.7619 41.1721 42.0231C40.6801 42.116 40.1749 42.1578 39.6692 42.1474C39.1849 42.146 38.7045 42.0806 38.2478 41.9538C38.166 41.9308 38.09 41.8964 38.0234 41.8524C37.9161 41.942 37.827 42.0316 37.74 42.0984C37.6914 42.6293 37.6316 43.1597 37.5607 43.6895C37.1481 46.6255 36.3648 49.5218 35.2226 52.3355L35.302 52.2975C35.316 52.0252 35.5801 51.5865 36.0052 50.9972C36.2027 50.7233 36.4346 50.419 36.6944 50.0825C37.6209 48.9505 38.8608 47.4507 40.6933 46.4151C40.7652 46.3745 40.8382 46.3305 40.908 46.295C42.8876 45.2738 44.864 44.4605 46.5806 44.1764C47.0035 44.0966 47.4346 44.0463 47.8688 44.0259C48.9509 43.9794 49.7614 44.1451 49.9364 44.3396C49.9836 44.3887 50.0058 44.4499 49.9987 44.5112C49.9847 44.7226 49.8312 45.0861 49.58 45.5883C49.3943 45.9602 49.1506 46.4083 48.8801 46.9266C48.0663 48.3105 46.967 50.2363 44.8812 51.3278C44.8092 51.365 44.7362 51.4005 44.6665 51.436C42.4797 52.5266 40.4314 53.1623 38.6547 53.1725C38.1076 53.1901 37.56 53.1506 37.0261 53.055C36.5118 52.9728 36.0185 52.824 35.5661 52.6145C35.486 52.5761 35.4152 52.5269 35.3568 52.4691C35.272 52.5181 35.1925 52.568 35.1174 52.612C35.0895 52.6787 35.0626 52.7464 35.0347 52.8132C34.4099 54.2766 33.6971 55.7036 32.9134 57.0867C32.1115 58.4631 31.2419 59.7921 30.309 61.0712C30.1244 61.3203 29.9376 61.5669 29.7486 61.8109L29.8195 61.7915L29.9054 61.7661C29.987 61.5015 30.3541 61.1109 30.9167 60.5986C31.1775 60.3602 31.4813 60.0964 31.8173 59.8064C33.0057 58.8376 34.5924 57.5559 36.6482 56.8204C36.7288 56.7908 36.8103 56.7629 36.8919 56.7359C39.0852 56.0359 41.2247 55.5405 42.9789 55.5244C43.415 55.5103 43.852 55.5273 44.2843 55.5751C45.3578 55.6943 46.1093 55.9801 46.2349 56.1974C46.2639 56.2552 46.2639 56.3196 46.2349 56.3774C46.1683 56.5829 45.9289 56.9168 45.5586 57.3699C45.2848 57.7081 44.9402 58.1105 44.5419 58.5755C43.4029 59.8098 41.8506 61.5345 39.535 62.2826C39.4545 62.308 39.3739 62.3317 39.2934 62.3554C36.8801 63.0909 34.7148 63.402 32.9671 63.1399C32.4261 63.073 31.8984 62.9508 31.3976 62.7764C30.9137 62.6167 30.4668 62.395 30.075 62.1203C30.0051 62.0706 29.9473 62.0113 29.9043 61.9453C29.7723 61.9944 29.6488 62.0459 29.5372 62.084C27.9133 64.1588 26.0882 66.1317 24.0783 67.985C23.3139 68.6861 22.5413 69.3571 21.7605 69.9979L21.9892 69.9801L22.0815 69.9725C22.2425 69.7316 22.7192 69.423 23.4234 69.0341C23.7455 68.8532 24.1255 68.6562 24.5409 68.4423C25.9806 67.7305 27.9161 66.7921 30.1383 66.4708L30.4014 66.4353C32.7449 66.1817 34.9725 66.1073 36.6804 66.4277C37.1077 66.4984 37.5262 66.5985 37.9311 66.727C38.9295 67.0457 39.5725 67.4684 39.6262 67.7051C39.6376 67.7666 39.6188 67.8292 39.5736 67.8801C39.4459 68.067 39.1098 68.3443 38.6074 68.7129C38.2371 68.9876 37.7787 69.3123 37.2483 69.6876C35.7615 70.6658 33.7239 72.0379 31.2462 72.3236C31.1603 72.3329 31.0755 72.3397 30.9897 72.3465C28.4218 72.6001 26.2253 72.4843 24.6107 71.8959C24.1065 71.7277 23.6325 71.508 23.2012 71.2424C22.7809 70.9946 22.4156 70.6938 22.1201 70.3521C22.0692 70.2904 22.0328 70.222 22.0128 70.1501C21.8475 70.1763 21.6907 70.2067 21.5597 70.2211L21.4674 70.2329C20.0622 71.3751 18.6473 72.4217 17.2549 73.3728C15.6242 74.4854 14.0354 75.4736 12.5217 76.3453L12.5592 76.3503C12.6924 76.3689 12.8427 76.3791 13.0069 76.3943L13.0992 76.4028C13.3215 76.1939 13.869 75.9716 14.6623 75.7087C15.0294 75.5861 15.4503 75.4551 15.9151 75.3122C17.5254 74.8582 19.6725 74.2622 21.9269 74.3188C22.016 74.3188 22.1051 74.3239 22.1931 74.329C24.5549 74.4659 26.7503 74.7686 28.3327 75.3654C28.7309 75.506 29.1127 75.6738 29.4738 75.8668C30.3692 76.3478 30.8844 76.8677 30.8694 77.1053C30.8633 77.1673 30.8286 77.2253 30.7717 77.2685C30.5967 77.4299 30.1942 77.6447 29.6069 77.922C29.1775 78.1291 28.6408 78.37 28.017 78.649C26.2994 79.3575 23.9376 80.3593 21.4427 80.2249C21.3568 80.2198 21.271 80.213 21.1862 80.2063C18.6097 80.0237 16.4916 79.546 15.067 78.7023C14.6194 78.4536 14.2151 78.1597 13.8647 77.8281C13.5201 77.5166 13.244 77.162 13.0477 76.779C13.0136 76.7102 12.9954 76.6372 12.994 76.5634C12.8255 76.5634 12.6634 76.5634 12.5313 76.5575L12.1739 76.5439C11.7069 76.8086 11.2452 77.063 10.7944 77.3048C9.80671 77.8636 8.8298 78.3193 7.9538 78.7809L5.47931 79.956L3.43959 80.8556C2.84593 81.1168 2.33708 81.3112 1.92699 81.4837L0.665588 82.0002L0 80.9773L1.26891 80.47C1.68008 80.3027 2.20181 80.1082 2.78474 79.8588Z" fill="url(#paint0_linear_1_339)" fill-opacity="0.6"/>
<defs>
<linearGradient id="paint0_linear_1_339" x1="16.716" y1="58.7669" x2="16.716" y2="-40.3164" gradientUnits="userSpaceOnUse">
<stop/>
<stop offset="1" stop-color="#666666"/>
</linearGradient>
</defs>
</svg>
