<svg width="21" height="20" viewBox="0 0 21 20" fill="none" xmlns="http://www.w3.org/2000/svg">
<path d="M9.60928 0.745604C9.98042 0.0183529 11.0196 0.0183526 11.3907 0.745604L13.7161 5.30224C13.8614 5.58696 14.1341 5.78506 14.4498 5.83526L19.502 6.63877C20.3083 6.76702 20.6294 7.75531 20.0525 8.33301L16.4374 11.9527C16.2115 12.1789 16.1074 12.4994 16.1572 12.8151L16.9542 17.8684C17.0814 18.6749 16.2408 19.2857 15.513 18.9155L10.9534 16.5959C10.6685 16.451 10.3315 16.451 10.0466 16.5959L5.48697 18.9155C4.75924 19.2857 3.91855 18.6749 4.04576 17.8684L4.84279 12.8151C4.8926 12.4994 4.78845 12.1789 4.56257 11.9527L0.94754 8.33301C0.370571 7.75531 0.691686 6.76702 1.49803 6.63877L6.55024 5.83526C6.86592 5.78506 7.13858 5.58696 7.28388 5.30224L9.60928 0.745604Z" fill="#C8B583"/>
</svg>
