<svg width="49" height="84" viewBox="0 0 49 84" fill="none" xmlns="http://www.w3.org/2000/svg">
<path opacity="0.5" d="M2.85821 81.2422L4.81592 80.3752L7.21008 79.2336C8.05779 78.7869 9.00517 78.3401 9.96094 77.7962C10.4701 77.5217 10.9908 77.2315 11.5231 76.9257C11.5179 76.8686 11.5116 76.7962 11.5042 76.7109C11.4917 76.606 11.4937 76.4782 11.4874 76.3443C11.3955 76.3438 11.3042 76.3306 11.2178 76.3051C10.7382 76.1578 10.2925 75.9463 9.89904 75.6792C9.48017 75.4075 9.10699 75.0921 8.78905 74.7414C7.71157 73.6331 7.07474 71.963 6.79567 69.921C6.78517 69.8528 6.77468 69.7855 6.76629 69.7173C6.54806 67.7359 7.74094 65.8399 8.58235 64.4629C8.91494 63.965 9.2024 63.5345 9.45 63.1841C9.78259 62.7126 10.0407 62.3878 10.2369 62.2463C10.2884 62.1986 10.3598 62.1683 10.4373 62.161C10.7321 62.1465 11.3878 62.5446 12.0036 63.2437C12.2504 63.5275 12.4656 63.8285 12.6468 64.1432C13.4221 65.3862 13.8438 67.1271 14.0652 68.9943C14.0715 69.0651 14.0778 69.135 14.082 69.2058C14.2006 70.9962 13.506 72.7098 12.9772 73.9972C12.8094 74.3698 12.6625 74.7065 12.5125 75.0006C12.1977 75.6366 11.9386 76.0766 11.6847 76.2574C11.6847 76.282 11.6931 76.306 11.6962 76.3298C11.7193 76.4602 11.734 76.5796 11.7613 76.6845C11.7686 76.7168 11.7749 76.7467 11.7812 76.7757C13.2039 75.9495 14.6926 75.0142 16.2181 73.9622C17.6564 72.9724 19.1211 71.8759 20.5721 70.6722C20.5602 70.6278 20.5465 70.5775 20.5311 70.5212C20.5007 70.4189 20.4798 70.292 20.4503 70.1607C20.3596 70.1717 20.2671 70.1691 20.1775 70.153C19.6767 70.0633 19.1978 69.9061 18.7611 69.6874C18.3007 69.4679 17.8775 69.2006 17.5023 68.892C16.2432 67.921 15.3158 66.342 14.6769 64.3538C14.6549 64.2881 14.6328 64.2217 14.6119 64.1551C14.0453 62.2206 14.8909 60.2044 15.4815 58.7439C15.7229 58.2128 15.9306 57.7524 16.111 57.3799C16.3555 56.8743 16.5548 56.5273 16.7238 56.3568C16.7669 56.3049 16.8324 56.2682 16.9074 56.2537C17.1969 56.2051 17.9156 56.5222 18.6489 57.1428C18.9435 57.3935 19.2103 57.665 19.4464 57.9537C20.4324 59.0935 21.1565 60.7671 21.7061 62.5899C21.7251 62.6589 21.744 62.728 21.7607 62.7962C22.1929 64.5533 21.81 66.3318 21.5132 67.6668C21.4082 68.0556 21.3211 68.4068 21.2309 68.7147C21.0357 69.3797 20.8532 69.846 20.6329 70.0549L20.6581 70.1257C20.7043 70.2511 20.7399 70.367 20.785 70.4666C20.785 70.4752 20.7912 70.4838 20.7954 70.4923C21.4816 69.9177 22.1629 69.3182 22.8392 68.6942C24.8118 66.8611 26.6064 64.9062 28.2066 62.8474L28.1573 62.7476C28.1059 62.6504 28.0597 62.5285 28.0042 62.4065C27.9168 62.4291 27.8252 62.439 27.7335 62.4355C27.2179 62.4127 26.7107 62.3194 26.2332 62.1593C25.7331 62.0046 25.2601 61.7975 24.8263 61.5429C23.3848 60.7526 22.1541 59.3185 21.1228 57.4421C21.0872 57.3808 21.0515 57.3185 21.018 57.2554C20.0736 55.4215 20.4933 53.3217 20.784 51.799C20.9151 51.243 21.0273 50.7622 21.1323 50.3675C21.2718 49.8355 21.3977 49.4621 21.5309 49.2788C21.563 49.2215 21.6203 49.1763 21.6915 49.1517C21.9673 49.0664 22.7406 49.283 23.5884 49.7972C23.93 50.0049 24.2482 50.2372 24.5389 50.4911C25.7422 51.4843 26.7935 53.0351 27.703 54.7633C27.7356 54.8281 27.7681 54.8946 27.7985 54.9603C28.5802 56.6346 28.5602 58.4395 28.5382 59.7977C28.5172 60.1934 28.4984 60.5523 28.471 60.8685C28.4134 61.5505 28.3263 62.0348 28.1563 62.2701C28.1699 62.2923 28.1826 62.3145 28.1952 62.3358C28.2591 62.4423 28.3126 62.5421 28.3704 62.629C28.5549 62.3875 28.7383 62.1448 28.92 61.901C29.8339 60.6451 30.6879 59.3322 31.48 57.975C32.2533 56.6108 32.9604 55.1998 33.5783 53.7514C33.5983 53.7044 33.6171 53.6575 33.636 53.6107L33.572 53.5313C33.4975 53.4461 33.421 53.3327 33.3348 53.2185C33.2554 53.2557 33.1684 53.2808 33.0778 53.2926C32.571 53.3556 32.0546 53.3494 31.5503 53.2739C31.0216 53.2053 30.5063 53.0806 30.0175 52.903C28.4092 52.3676 26.8448 51.168 25.3645 49.5012C25.3141 49.4467 25.2597 49.3921 25.2156 49.3358C23.8266 47.6981 23.7183 45.571 23.6188 44.0346C23.6072 43.4685 23.5977 42.9792 23.6009 42.5759C23.6009 42.0311 23.6335 41.6458 23.7184 41.4428C23.7355 41.3819 23.7801 41.3284 23.8433 41.2928C24.092 41.1624 24.903 41.2468 25.8629 41.61C26.2495 41.7569 26.6192 41.9314 26.9677 42.1318C28.3945 42.905 29.813 44.2486 31.1369 45.79C31.1852 45.8489 31.2334 45.9077 31.2796 45.9675C32.4652 47.4773 32.8974 49.2481 33.2163 50.5815C33.2951 50.972 33.3664 51.3266 33.4189 51.6404C33.5332 52.3173 33.57 52.8066 33.4577 53.0659L33.5122 53.1238C33.5951 53.2091 33.6685 53.2944 33.741 53.3668C34.9014 50.5519 35.7099 47.6489 36.154 44.7023C36.2238 44.2133 36.2854 43.724 36.3386 43.2341L36.0837 43.021C35.9986 42.9528 35.9054 42.8615 35.8036 42.7694C35.739 42.8141 35.665 42.849 35.5854 42.8726C35.1384 42.9996 34.6687 43.0652 34.1953 43.067C33.7009 43.0775 33.2071 43.0355 32.7264 42.9416C31.1527 42.6783 29.4824 41.8061 27.7954 40.4982C27.7376 40.4565 27.6811 40.4129 27.6254 40.3687C26.0224 39.0745 25.4779 37.1587 25.0666 35.7785C24.9376 35.2669 24.8253 34.8236 24.7455 34.457C24.6343 33.9624 24.5798 33.6087 24.6144 33.4126C24.6168 33.3548 24.6461 33.3 24.6962 33.2591C24.8944 33.1065 25.6478 33.0706 26.5952 33.2676C26.9748 33.3479 27.3452 33.4548 27.702 33.5874C29.1593 34.0921 30.7277 35.1161 32.2522 36.3309C32.3079 36.3769 32.3634 36.4246 32.418 36.4724C33.8102 37.6797 34.5739 39.2253 35.1458 40.3942C35.3 40.7353 35.4374 41.0498 35.5518 41.3278C35.7973 41.9246 35.9326 42.3654 35.8843 42.6161L35.9463 42.6612C36.0574 42.7421 36.1561 42.8189 36.2515 42.8802L36.3732 42.9655C36.6185 40.4485 36.6314 37.9202 36.412 35.4016C36.3421 34.5491 36.2414 33.7033 36.1099 32.8643L35.8424 32.7348C35.7374 32.6888 35.6263 32.6231 35.5034 32.5584C35.4565 32.6132 35.3979 32.6608 35.3303 32.6989C34.9545 32.909 34.5377 33.0661 34.0977 33.1636C33.6409 33.2743 33.1683 33.336 32.6918 33.3468C31.1464 33.422 29.3209 32.9514 27.3412 32.0783C27.275 32.051 27.2089 32.022 27.1429 31.993C25.2544 31.1157 24.1517 29.4421 23.3418 28.2418C23.0637 27.7916 22.8234 27.4021 22.6347 27.0772C22.3786 26.6398 22.215 26.3209 22.1899 26.1316C22.1744 26.0774 22.1849 26.0205 22.2192 25.9722C22.3566 25.7889 23.047 25.6022 23.9902 25.5928C24.3701 25.5895 24.7497 25.6137 25.1242 25.6653C26.6361 25.8358 28.4123 26.471 30.2074 27.2912C30.2745 27.3227 30.3406 27.3559 30.4068 27.3884C32.0748 28.229 33.2635 29.5129 34.1533 30.4823C34.4029 30.7722 34.6275 31.0339 34.8195 31.2692C35.2329 31.7765 35.4951 32.1577 35.5276 32.4005L35.5989 32.4304C35.7281 32.4832 35.8434 32.5344 35.9515 32.572L36.0742 32.618C35.7504 30.5547 35.2661 28.5101 34.6243 26.4966C34.3012 25.4855 33.9441 24.4962 33.5532 23.5288L33.4282 23.4819C33.3234 23.4444 33.2007 23.3881 33.0694 23.3344C33.0299 23.3927 32.9776 23.4447 32.9153 23.4879C32.5681 23.7286 32.1733 23.9196 31.7476 24.0531C31.3073 24.2017 30.8449 24.3024 30.3721 24.3524C28.8445 24.5561 26.9687 24.2398 24.8893 23.5365C24.82 23.5152 24.7508 23.4912 24.6794 23.4674C22.6861 22.7521 21.3831 21.1792 20.4252 20.0512C20.0915 19.625 19.8031 19.2592 19.5742 18.9522C19.2647 18.5379 19.0655 18.2344 19.013 18.0486C18.9908 17.9957 18.9942 17.9382 19.0225 17.8874C19.1357 17.6938 19.7987 17.4508 20.7357 17.3622C21.1132 17.3274 21.4938 17.32 21.873 17.34C23.3984 17.3853 25.246 17.8678 27.1355 18.5337C27.2057 18.5592 27.2761 18.5865 27.3453 18.6138C29.111 19.3103 30.456 20.4895 31.4622 21.3786C31.7465 21.6463 32.0035 21.8902 32.2249 22.1059C32.6992 22.5765 33.0076 22.9328 33.0715 23.1724L33.1471 23.1954C33.2593 23.2313 33.3569 23.2645 33.4619 23.2909C32.7971 21.6678 32.0302 20.0732 31.1642 18.514C30.2934 16.9393 29.3545 15.4568 28.3839 14.0722L28.0829 14.0227C27.9779 14.0091 27.8647 13.9809 27.7397 13.9571C27.7213 14.0137 27.6903 14.0671 27.6486 14.1148C27.4118 14.3772 27.1228 14.6057 26.7934 14.7909C26.4557 14.9911 26.0866 15.1539 25.6961 15.2751C24.4445 15.7014 22.7648 15.7466 20.8133 15.4925C20.7494 15.4856 20.6843 15.4781 20.6192 15.4687C18.7381 15.1899 17.2295 14.0662 16.1278 13.2639C15.7364 12.957 15.3934 12.6919 15.1248 12.4668C14.7555 12.1658 14.509 11.9407 14.4177 11.7907C14.3854 11.7492 14.3734 11.6992 14.3842 11.6509C14.4325 11.4676 14.9381 11.1496 15.7145 10.9185C16.0274 10.8252 16.35 10.7553 16.6787 10.7096C17.9912 10.4939 19.6886 10.5971 21.4691 10.8512L21.6684 10.8844C23.347 11.1845 24.7949 11.9663 25.8776 12.558C26.1923 12.7379 26.4683 12.899 26.7116 13.0508C27.2362 13.3731 27.5887 13.6263 27.703 13.8181L27.7734 13.8258C27.8993 13.8394 28.0125 13.8547 28.1154 13.8599L28.2423 13.8692C27.7462 13.1684 27.2424 12.4898 26.7358 11.841C25.7758 10.6133 24.8075 9.48451 23.8568 8.45035C23.6272 8.53561 23.1057 8.4657 22.3881 8.27984C22.0993 8.20652 21.781 8.11586 21.4333 8.00787C20.2542 7.61909 18.7843 7.02316 17.6952 5.99241C17.6533 5.95063 17.6103 5.90715 17.5683 5.86879C16.4803 4.74341 15.534 3.63166 15.0021 2.68445C14.8644 2.45325 14.7477 2.21418 14.6528 1.96916C14.4209 1.37236 14.4114 0.911128 14.5677 0.781539C14.612 0.746879 14.6701 0.726302 14.7314 0.723564C14.9412 0.692872 15.3337 0.709071 15.8624 0.767045C16.2558 0.807116 16.7238 0.871911 17.2515 0.956314C18.6742 1.22402 20.5374 1.66479 21.6956 2.85071C21.7356 2.89164 21.7744 2.93597 21.8121 2.97433C22.9809 4.22334 23.7688 5.40159 24.0374 6.43659C24.1312 6.74967 24.1774 7.07094 24.1747 7.39317C24.1831 7.69513 24.1256 7.9959 24.0048 8.28154C23.9925 8.30674 23.9782 8.33124 23.9618 8.35486C24.9344 9.38731 25.9269 10.517 26.911 11.7464C27.4608 12.4327 28.0074 13.1514 28.5456 13.8965C28.5456 13.8854 28.5528 13.8744 28.5582 13.8616C28.5886 13.7823 28.6127 13.6911 28.6432 13.5905C28.6432 13.5726 28.6536 13.5538 28.6588 13.535C28.4794 13.3782 28.3169 13.0192 28.1343 12.5051C28.0504 12.2673 27.9654 11.9936 27.871 11.6952C27.5856 10.6602 27.2142 9.28245 27.4806 7.90044C27.4911 7.84588 27.5017 7.79131 27.5143 7.73675C27.8689 6.29677 28.3662 4.9736 29.088 4.05794C29.26 3.82606 29.4574 3.6072 29.6776 3.40402C30.2241 2.89931 30.7728 2.63671 31.0005 2.66229C31.0593 2.67201 31.1117 2.69904 31.1474 2.73818C31.2859 2.86265 31.4559 3.13035 31.6721 3.51912C31.8304 3.80729 32.0119 4.1611 32.2207 4.56863C32.7453 5.69316 33.4796 7.24397 33.1187 8.76921C33.1062 8.82121 33.0926 8.87322 33.0768 8.92523C32.6572 10.4957 32.0014 11.7515 31.0551 12.5435C30.7742 12.7952 30.4535 13.0157 30.1014 13.1991C29.7694 13.3811 29.4025 13.5169 29.0155 13.6007C28.9471 13.6148 28.876 13.6188 28.8057 13.6126C28.7889 13.7158 28.7764 13.8164 28.7575 13.8965C28.7364 13.9937 28.7197 14.0713 28.7092 14.1182C29.6639 15.4568 30.5903 16.8865 31.4548 18.404C32.382 20.0319 33.2019 21.6988 33.9109 23.3975C33.9138 23.3932 33.9162 23.3885 33.9183 23.3839C33.9655 23.2986 34.0064 23.1954 34.0568 23.0855C34.0652 23.065 34.0745 23.0454 34.084 23.025C33.9035 22.8288 33.7766 22.405 33.6539 21.804C33.5962 21.5253 33.5416 21.2073 33.4807 20.8585C33.3181 19.6573 33.1115 18.0596 33.6276 16.5199C33.6476 16.4601 33.6696 16.3987 33.6916 16.3391C34.3211 14.7448 35.086 13.2963 36.0481 12.3321C36.2787 12.0865 36.536 11.8582 36.8171 11.65C37.5158 11.1385 38.1809 10.8895 38.4306 10.9475C38.4966 10.9636 38.5526 10.9996 38.5869 11.0481C38.7244 11.2016 38.8744 11.5238 39.0538 11.9859C39.1881 12.327 39.3391 12.7464 39.5134 13.2298C39.9331 14.5581 40.5268 16.3911 39.8785 18.0809C39.8553 18.1389 39.8313 18.1968 39.806 18.2514C39.0895 19.9863 38.1473 21.3419 36.9535 22.1425C36.5959 22.4014 36.1976 22.6203 35.769 22.7939C35.3651 22.9656 34.9284 23.081 34.4774 23.1349C34.3965 23.1444 34.3141 23.142 34.2341 23.1281C34.1974 23.244 34.169 23.3557 34.1344 23.4452C34.0893 23.5697 34.0547 23.6652 34.0378 23.7129C34.3956 24.5886 34.7314 25.4811 35.0356 26.3933C35.7172 28.4389 36.2372 30.5177 36.5926 32.6171C36.6502 32.5584 36.7079 32.4944 36.7729 32.4253L36.8212 32.3732C36.7163 32.1431 36.7499 31.7075 36.8475 31.1047C36.8936 30.8241 36.9523 30.5078 37.0227 30.1601C37.2997 28.9776 37.6753 27.3977 38.718 26.0507C38.7591 25.997 38.8021 25.944 38.8439 25.8921C40.02 24.5152 41.2749 23.3131 42.5423 22.6234C42.8512 22.4439 43.1792 22.287 43.5221 22.1545C44.3751 21.8279 45.0959 21.7494 45.3183 21.8655C45.3754 21.8953 45.4163 21.9415 45.4327 21.9951C45.5103 22.1758 45.5375 22.5185 45.5438 23.0028C45.5491 23.3617 45.5438 23.7982 45.5354 24.3021C45.4547 25.6704 45.3697 27.5657 44.1411 29.0287C44.0981 29.0781 44.054 29.1276 44.0089 29.1762C42.7006 30.6655 41.3137 31.739 39.8836 32.2206C39.4494 32.3814 38.9908 32.4944 38.5198 32.5566C38.0698 32.6257 37.6089 32.6331 37.1559 32.5788C37.0751 32.5682 36.9973 32.546 36.9261 32.5131C36.8496 32.6145 36.7824 32.7152 36.7163 32.7919C36.6858 32.8285 36.6597 32.8619 36.6356 32.8925C36.7678 33.7075 36.8758 34.5297 36.9597 35.3589C37.2137 37.8639 37.2404 40.3807 37.0395 42.8888L37.1549 42.8035L37.2168 42.7584C37.1685 42.5077 37.3049 42.0687 37.5504 41.4701C37.6637 41.1921 37.8022 40.8811 37.9553 40.5365C38.524 39.3703 39.2878 37.8246 40.6832 36.6148C40.7376 36.5678 40.788 36.521 40.8489 36.475C42.3743 35.2592 43.9429 34.2353 45.399 33.7306C45.7573 33.5974 46.1289 33.4899 46.5101 33.4091C47.4544 33.2122 48.2108 33.248 48.4091 33.4007C48.4596 33.4414 48.4892 33.4963 48.492 33.5542C48.5255 33.7502 48.472 34.104 48.3608 34.5984C48.2738 34.9668 48.1604 35.4119 48.0335 35.9234C47.6211 37.3037 47.0766 39.2194 45.4746 40.5136C45.418 40.557 45.3613 40.5988 45.3046 40.6432C43.6124 41.951 41.9411 42.8232 40.3737 43.0865C39.8929 43.1803 39.399 43.2223 38.9048 43.2119C38.4317 43.2106 37.962 43.1446 37.5158 43.0168C37.4358 42.9934 37.3615 42.9587 37.2965 42.9143C37.1916 43.0047 37.1045 43.0951 37.0195 43.1624C36.9719 43.6979 36.9135 44.2328 36.8443 44.767C36.4409 47.7278 35.6756 50.6486 34.5592 53.4862L34.6369 53.4477C34.6506 53.1733 34.9087 52.7308 35.324 52.1365C35.5171 51.8603 35.7437 51.5533 35.9977 51.2141C36.9031 50.0725 38.1149 48.5601 39.9057 47.5157C39.9761 47.4748 40.0474 47.4304 40.1155 47.3946C42.0501 46.3647 43.9817 45.5446 45.6593 45.258C46.0727 45.1777 46.4939 45.1269 46.9183 45.1063C47.9757 45.0594 48.7679 45.2266 48.9389 45.4226C48.985 45.4722 49.0067 45.5338 48.9998 45.5956C48.9861 45.8089 48.8361 46.1755 48.5906 46.6818C48.4091 47.057 48.1709 47.5089 47.9065 48.0315C47.1112 49.4271 46.0369 51.3692 43.9984 52.4699C43.9282 52.5075 43.8569 52.5432 43.7886 52.579C41.6516 53.6788 39.6498 54.3199 37.9134 54.3302C37.3787 54.3479 36.8436 54.308 36.3218 54.2117C35.8192 54.1289 35.337 53.9787 34.895 53.7675C34.8167 53.7288 34.7474 53.6791 34.6903 53.6208C34.6076 53.6703 34.5299 53.7206 34.4565 53.765C34.4291 53.8323 34.4029 53.9005 34.3757 53.9678C33.765 55.4437 33.0685 56.8829 32.3026 58.2776C31.5188 59.6656 30.6691 61.0058 29.7573 62.2956C29.5769 62.5469 29.3943 62.7956 29.2097 63.0418L29.279 63.022L29.3629 62.9965C29.4426 62.7297 29.8014 62.3358 30.3512 61.8191C30.6061 61.5787 30.9029 61.3128 31.2313 61.0203C32.3927 60.0432 33.9434 58.7507 35.9526 58.0091C36.0312 57.9792 36.1109 57.9511 36.1908 57.9238C38.3341 57.2178 40.4251 56.7182 42.1394 56.7021C42.5656 56.6879 42.9927 56.705 43.4151 56.7532C44.4643 56.8734 45.1987 57.1615 45.3214 57.3808C45.3497 57.4391 45.3497 57.5039 45.3214 57.5622C45.2563 57.7694 45.0224 58.1063 44.6605 58.5631C44.393 58.9042 44.0561 59.31 43.6669 59.779C42.5537 61.0236 41.0367 62.7629 38.7737 63.5175C38.695 63.543 38.6164 63.567 38.5376 63.5907C36.1792 64.3325 34.0631 64.6462 32.355 64.382C31.8263 64.3145 31.3106 64.1912 30.8211 64.0154C30.3483 63.8544 29.9116 63.6308 29.5286 63.3537C29.4603 63.3036 29.4038 63.2439 29.3618 63.1773C29.2328 63.2267 29.1121 63.2787 29.003 63.3171C27.416 65.4094 25.6323 67.399 23.6681 69.268C22.921 69.975 22.166 70.6517 21.4029 71.2979L21.6264 71.2801L21.7166 71.2724C21.8741 71.0294 22.3398 70.7182 23.0281 70.3261C23.3428 70.1436 23.7142 69.9449 24.1203 69.7292C25.5272 69.0114 27.4188 68.065 29.5904 67.7411L29.8475 67.7053C32.1378 67.4495 34.3148 67.3745 35.984 67.6976C36.4016 67.7688 36.8105 67.8698 37.2063 67.9993C38.1819 68.3208 38.8104 68.747 38.8629 68.9858C38.874 69.0478 38.8555 69.1109 38.8114 69.1623C38.6866 69.3507 38.3582 69.6303 37.8672 70.0021C37.5052 70.2791 37.0573 70.6065 36.5389 70.985C35.086 71.9715 33.0947 73.3551 30.6733 73.6434C30.5892 73.6527 30.5064 73.6595 30.4225 73.6663C27.9129 73.9221 25.7663 73.8053 24.1884 73.2119C23.6956 73.0423 23.2325 72.8208 22.8109 72.553C22.4001 72.3032 22.0431 71.9998 21.7544 71.6551C21.7046 71.5929 21.6691 71.5239 21.6494 71.4514C21.4879 71.4778 21.3347 71.5086 21.2067 71.5229L21.1165 71.535C19.7432 72.6867 18.3604 73.7422 16.9996 74.7014C15.406 75.8233 13.8533 76.82 12.374 77.699L12.4107 77.7041C12.5408 77.7229 12.6877 77.7331 12.8482 77.7485L12.9384 77.757C13.1556 77.5464 13.6907 77.3222 14.466 77.057C14.8248 76.9334 15.2361 76.8012 15.6904 76.6572C17.2641 76.1993 19.3623 75.5983 21.5655 75.6554C21.6526 75.6554 21.7398 75.6605 21.8258 75.6656C24.1338 75.8037 26.2794 76.1089 27.8259 76.7109C28.215 76.8526 28.5882 77.0218 28.9411 77.2165C29.8161 77.7016 30.3196 78.2259 30.305 78.4654C30.299 78.5279 30.265 78.5866 30.2095 78.6299C30.0385 78.7929 29.645 79.0093 29.0712 79.289C28.6516 79.4979 28.1269 79.7409 27.5173 80.0222C25.8388 80.7367 23.5306 81.7469 21.0924 81.6114C21.0085 81.6063 20.9246 81.5995 20.8416 81.5927C18.3237 81.4084 16.2537 80.9268 14.8615 80.0759C14.4241 79.8252 14.029 79.5288 13.6865 79.1944C13.3498 78.8802 13.0799 78.5227 12.8881 78.1364C12.8547 78.067 12.8369 77.9933 12.8356 77.9189C12.6709 77.9189 12.5125 77.9189 12.3834 77.913L12.0341 77.8993C11.5777 78.1661 11.1266 78.4228 10.6859 78.6666C9.72068 79.2301 8.76596 79.6897 7.90986 80.1553L5.49158 81.3402L3.49819 82.2474C2.918 82.5109 2.42072 82.707 2.01993 82.8808L0.787189 83.4018L0.136719 82.3701L1.37681 81.8586C1.77864 81.6899 2.28852 81.4937 2.85821 81.2422Z" fill="url(#paint0_linear_1_481)"/>
<defs>
<linearGradient id="paint0_linear_1_481" x1="24.5689" y1="0.708313" x2="24.5689" y2="115.76" gradientUnits="userSpaceOnUse">
<stop stop-color="#7B87FF"/>
<stop offset="1" stop-color="#7B87FF" stop-opacity="0"/>
</linearGradient>
</defs>
</svg>
